<svg width="25" height="25" viewBox="0 0 25 25" fill="none" xmlns="http://www.w3.org/2000/svg">
<path d="M17.1235 0.802734H8.12354C3.98204 0.802734 0.623535 4.16123 0.623535 8.30273V17.3027C0.623535 21.4442 3.98204 24.8027 8.12354 24.8027H17.1235C21.265 24.8027 24.6235 21.4442 24.6235 17.3027V8.30273C24.6235 4.16123 21.265 0.802734 17.1235 0.802734ZM22.3735 17.3027C22.3735 20.1977 20.0185 22.5527 17.1235 22.5527H8.12354C5.22854 22.5527 2.87354 20.1977 2.87354 17.3027V8.30273C2.87354 5.40773 5.22854 3.05273 8.12354 3.05273H17.1235C20.0185 3.05273 22.3735 5.40773 22.3735 8.30273V17.3027Z" fill="white"/>
</svg>
